<svg width="40" height="40" viewBox="0 0 40 40" fill="none" xmlns="http://www.w3.org/2000/svg">
  <path d="M20 2C10.059 2 2 10.059 2 20C2 29.941 10.059 38 20 38C29.941 38 38 29.941 38 20C38 10.059 29.941 2 20 2Z" fill="url(#paint0_linear)" />
  <path d="M28.5 14C27.119 14 26 15.119 26 16.5C26 17.881 27.119 19 28.5 19C29.881 19 31 17.881 31 16.5C31 15.119 29.881 14 28.5 14Z" fill="white" />
  <path d="M20 10C14.477 10 10 14.477 10 20C10 25.523 14.477 30 20 30C25.523 30 30 25.523 30 20C30 14.477 25.523 10 20 10ZM20 28C15.582 28 12 24.418 12 20C12 15.582 15.582 12 20 12C24.418 12 28 15.582 28 20C28 24.418 24.418 28 20 28Z" fill="white" />
  <path d="M20 14C16.686 14 14 16.686 14 20C14 23.314 16.686 26 20 26C23.314 26 26 23.314 26 20C26 16.686 23.314 14 20 14ZM20 24C17.791 24 16 22.209 16 20C16 17.791 17.791 16 20 16C22.209 16 24 17.791 24 20C24 22.209 22.209 24 20 24Z" fill="white" />
  <path d="M10 22C10 22 12 26 16 28C16 28 14 24 10 22Z" fill="white" />
  <path d="M10 18C10 18 14 16 16 12C16 12 12 14 10 18Z" fill="white" />
  <defs>
    <linearGradient id="paint0_linear" x1="2" y1="2" x2="38" y2="38" gradientUnits="userSpaceOnUse">
      <stop stop-color="#0EA5E9" />
      <stop offset="1" stop-color="#06B6D4" />
    </linearGradient>
  </defs>
</svg>
